<svg width="24" height="24" viewBox="0 0 24 24" fill="none" xmlns="http://www.w3.org/2000/svg">
<path d="M6 11H7V10H6V11Z" fill="black" fill-opacity="0.54"/>
<path d="M12 10H12.119C12.3804 10 12.6284 10.1161 12.7958 10.317C12.9277 10.4753 13 10.6749 13 10.881V13.119C13 13.3251 12.9277 13.5247 12.7958 13.683C12.6284 13.8839 12.3804 14 12.119 14H12V10Z" fill="black" fill-opacity="0.54"/>
<path fill-rule="evenodd" clip-rule="evenodd" d="M4 5C4 3.34315 5.34315 2 7 2H15C17.419 2 19.4367 3.71776 19.9 6H20C21.1046 6 22 6.89543 22 8V16C22 17.1046 21.1046 18 20 18V19C20 20.6569 18.6569 22 17 22H7C5.34315 22 4 20.6569 4 19L4 18C2.89543 18 2 17.1046 2 16V8C2 6.89543 2.89543 6 4 6V5ZM15 4C16.3062 4 17.4175 4.83481 17.8293 6H6V5C6 4.44772 6.44772 4 7 4H15ZM6 19V18H18V19C18 19.5523 17.5523 20 17 20H7C6.44772 20 6 19.5523 6 19ZM4 10C4 8.89543 4.89543 8 6 8H7C8.10457 8 9 8.89543 9 10V11C9 12.1046 8.10457 13 7 13H6V15C6 15.5523 5.55228 16 5 16C4.44772 16 4 15.5523 4 15V10ZM11.0431 8C10.467 8 10 8.467 10 9.04307V14.9569C10 15.533 10.467 16 11.0431 16H12.119C12.974 16 13.7849 15.6202 14.3322 14.9634C14.7637 14.4456 15 13.793 15 13.119V10.881C15 10.207 14.7637 9.5544 14.3322 9.03664C13.7849 8.37979 12.974 8 12.119 8H11.0431ZM18 8C16.8954 8 16 8.89543 16 10V15C16 15.5523 16.4477 16 17 16C17.5523 16 18 15.5523 18 15V13C18.5523 13 19 12.5523 19 12C19 11.4477 18.5523 11 18 11V10H19C19.5523 10 20 9.55228 20 9C20 8.44772 19.5523 8 19 8H18Z" fill="black" fill-opacity="0.54"/>
</svg>
